<svg xmlns="http://www.w3.org/2000/svg" version="1.1" xmlns:xlink="http://www.w3.org/1999/xlink" xmlns:svgjs="http://svgjs.dev/svgjs" width="128" height="128" viewBox="0 0 128 128"><g transform="matrix(0.8046875,0,0,0.8046875,12.251863636363638,12.251863636363638)"><svg viewBox="0 0 143 143" data-background-color="#fffff5" preserveAspectRatio="xMidYMid meet" height="128" width="128" xmlns="http://www.w3.org/2000/svg" xmlns:xlink="http://www.w3.org/1999/xlink"><g id="tight-bounds" transform="matrix(1,0,0,1,0.3444999999999965,0.3444999999999965)"><svg viewBox="0 0 142.31066447748242 142.31066447748242" height="142.31066447748242" width="142.31066447748242"><g><svg></svg></g><g><svg viewBox="0 0 142.31066447748242 142.31066447748242" height="142.31066447748242" width="142.31066447748242"><g><path d="M0 71.155c0-39.298 31.857-71.155 71.155-71.155 39.298 0 71.155 31.857 71.156 71.155 0 39.298-31.857 71.155-71.156 71.156-39.298 0-71.155-31.857-71.155-71.156zM71.155 134.886c35.197 0 63.731-28.533 63.731-63.731 0-35.197-28.533-63.731-63.731-63.73-35.197 0-63.731 28.533-63.73 63.73 0 35.197 28.533 63.731 63.73 63.731z" data-fill-palette-color="tertiary" fill="#091627" stroke="transparent"></path><ellipse rx="68.30911894919156" ry="68.30911894919156" cx="71.15533223874121" cy="71.15533223874121" fill="#091627" stroke="transparent" stroke-width="0" fill-opacity="1" data-fill-palette-color="tertiary"></ellipse></g><g transform="matrix(1,0,0,1,43.1966051312198,29.989108276746492)"><svg viewBox="0 0 55.91745421504283 82.33244792398943" height="82.33244792398943" width="55.91745421504283"><g><svg viewBox="0 0 55.91745421504283 82.33244792398943" height="82.33244792398943" width="55.91745421504283"><g><svg viewBox="0 0 55.91745421504283 82.33244792398943" height="82.33244792398943" width="55.91745421504283"><g id="textblocktransform"><svg viewBox="0 0 55.91745421504283 82.33244792398943" height="82.33244792398943" width="55.91745421504283" id="textblock"><g><svg viewBox="0 0 55.91745421504283 82.33244792398943" height="82.33244792398943" width="55.91745421504283"><g transform="matrix(1,0,0,1,0,0)"><svg width="55.91745421504283" viewBox="1.45 -23.4 16.3 24" height="82.33244792398943" data-palette-color="url(#3ae37f6c-179f-4bce-b019-eba6a11a5188)"></svg></g></svg></g></svg></g></svg></g><g></g></svg></g></svg></g></svg></g><defs></defs><mask id="9ba10f7f-4ee8-4c0e-999d-fa83f80fdacd"><g id="SvgjsG6958"><svg viewBox="0 0 142.31066447748242 142.31066447748242" height="142.31066447748242" width="142.31066447748242"><g><svg></svg></g><g><svg viewBox="0 0 142.31066447748242 142.31066447748242" height="142.31066447748242" width="142.31066447748242"><g><path d="M0 71.155c0-39.298 31.857-71.155 71.155-71.155 39.298 0 71.155 31.857 71.156 71.155 0 39.298-31.857 71.155-71.156 71.156-39.298 0-71.155-31.857-71.155-71.156zM71.155 134.886c35.197 0 63.731-28.533 63.731-63.731 0-35.197-28.533-63.731-63.731-63.73-35.197 0-63.731 28.533-63.73 63.73 0 35.197 28.533 63.731 63.73 63.731z" fill="black" stroke="transparent"></path><ellipse rx="68.30911894919156" ry="68.30911894919156" cx="71.15533223874121" cy="71.15533223874121" fill="black" stroke="transparent" stroke-width="0" fill-opacity="1"></ellipse></g><g transform="matrix(1,0,0,1,43.1966051312198,29.989108276746492)"><svg viewBox="0 0 55.91745421504283 82.33244792398943" height="82.33244792398943" width="55.91745421504283"><g><svg viewBox="0 0 55.91745421504283 82.33244792398943" height="82.33244792398943" width="55.91745421504283"><g><svg viewBox="0 0 55.91745421504283 82.33244792398943" height="82.33244792398943" width="55.91745421504283"><g id="SvgjsG6957"><svg viewBox="0 0 55.91745421504283 82.33244792398943" height="82.33244792398943" width="55.91745421504283" id="SvgjsSvg6956"><g><svg viewBox="0 0 55.91745421504283 82.33244792398943" height="82.33244792398943" width="55.91745421504283"><g transform="matrix(1,0,0,1,0,0)"><svg width="55.91745421504283" viewBox="1.45 -23.4 16.3 24" height="82.33244792398943" data-palette-color="url(#3ae37f6c-179f-4bce-b019-eba6a11a5188)"><path d="M16.55-21.9L15.3-18.8Q12.75-19.9 10.5-19.9L10.5-19.9Q6.15-19.9 6.15-17.25L6.15-17.25Q6.15-14.95 11.95-12.8L11.95-12.8Q14.1-12 15.93-10.3 17.75-8.6 17.75-6.2L17.75-6.2Q17.75-2.75 15.5-1.07 13.25 0.6 9.25 0.6 5.25 0.6 1.45-1.6L1.45-1.6 2.7-4.7Q5.85-2.9 9.85-2.9L9.85-2.9Q11.55-2.9 12.6-3.63 13.65-4.35 13.65-5.6 13.65-6.85 12.45-7.75 11.25-8.65 9.55-9.35 7.85-10.05 6.15-10.88 4.45-11.7 3.25-13.2 2.05-14.7 2.05-16.75L2.05-16.75Q2.05-19.95 4.23-21.68 6.4-23.4 9.75-23.4 13.1-23.4 16.55-21.9L16.55-21.9Z" opacity="1" transform="matrix(1,0,0,1,0,0)" fill="white" class="wordmark-text-0" id="SvgjsPath6955"></path></svg></g></svg></g></svg></g></svg></g><g></g></svg></g></svg></g></svg></g><defs><mask></mask></defs></svg><rect width="142.31066447748242" height="142.31066447748242" fill="black" stroke="none" visibility="hidden"></rect></g></mask><linearGradient x1="0" x2="1" y1="0.5" y2="0.5" id="3ae37f6c-179f-4bce-b019-eba6a11a5188"><stop stop-color="#ffa62e" offset="0"></stop><stop stop-color="#f71b3d" offset="1"></stop></linearGradient><rect width="142.311" height="142.311" fill="url(#3ae37f6c-179f-4bce-b019-eba6a11a5188)" mask="url(#9ba10f7f-4ee8-4c0e-999d-fa83f80fdacd)" data-fill-palette-color="quaternary"></rect></svg><rect width="142.31066447748242" height="142.31066447748242" fill="none" stroke="none" visibility="hidden"></rect></g></svg></g></svg>